<svg width="24" height="24" viewBox="0 0 24 24" fill="none" xmlns="http://www.w3.org/2000/svg">
<g clip-path="url(#clip0_4_84)">
<path d="M1 20C0.716667 20 0.479167 19.9042 0.2875 19.7125C0.0958333 19.5208 0 19.2833 0 19C0 18.7167 0.0958333 18.4792 0.2875 18.2875C0.479167 18.0958 0.716667 18 1 18H2V5C2 4.45 2.19583 3.97917 2.5875 3.5875C2.97917 3.19583 3.45 3 4 3H20C20.55 3 21.0208 3.19583 21.4125 3.5875C21.8042 3.97917 22 4.45 22 5V18H23C23.2833 18 23.5208 18.0958 23.7125 18.2875C23.9042 18.4792 24 18.7167 24 19C24 19.2833 23.9042 19.5208 23.7125 19.7125C23.5208 19.9042 23.2833 20 23 20H1ZM10.5 18H13.5C13.6333 18 13.75 17.95 13.85 17.85C13.95 17.75 14 17.6333 14 17.5C14 17.3667 13.95 17.25 13.85 17.15C13.75 17.05 13.6333 17 13.5 17H10.5C10.3667 17 10.25 17.05 10.15 17.15C10.05 17.25 10 17.3667 10 17.5C10 17.6333 10.05 17.75 10.15 17.85C10.25 17.95 10.3667 18 10.5 18ZM4 15H20V5H4V15Z" fill="#6DABE4"/>
</g>
<defs>
<clipPath id="clip0_4_84">
<rect width="24" height="24" fill="white"/>
</clipPath>
</defs>
</svg>
