<svg width="310" height="49" viewBox="0 0 310 49" fill="none" xmlns="http://www.w3.org/2000/svg">
<path d="M0.632004 6.01602C1.464 6.04802 2.552 6.08002 3.896 6.11202C5.24 6.14402 6.584 6.16002 7.928 6.16002C9.464 6.16002 10.952 6.14402 12.392 6.11202C13.832 6.08002 14.856 6.06402 15.464 6.06402C19.432 6.06402 22.392 6.76802 24.344 8.17602C26.328 9.58402 27.32 11.392 27.32 13.6C27.32 14.72 26.984 15.856 26.312 17.008C25.64 18.16 24.6 19.184 23.192 20.08C21.784 20.976 19.96 21.632 17.72 22.048V22.144C20.728 22.368 23.112 22.912 24.872 23.776C26.632 24.64 27.896 25.68 28.664 26.896C29.432 28.112 29.816 29.376 29.816 30.688C29.816 32.704 29.288 34.4 28.232 35.776C27.176 37.152 25.656 38.208 23.672 38.944C21.688 39.648 19.32 40 16.568 40C15.8 40 14.696 39.984 13.256 39.952C11.816 39.888 10.072 39.856 8.024 39.856C6.616 39.856 5.24 39.872 3.896 39.904C2.552 39.904 1.464 39.936 0.632004 40V39.04C1.656 38.976 2.424 38.848 2.936 38.656C3.448 38.464 3.784 38.08 3.944 37.504C4.136 36.928 4.232 36.064 4.232 34.912V11.104C4.232 9.92002 4.136 9.05602 3.944 8.51202C3.784 7.93602 3.432 7.55202 2.888 7.36002C2.376 7.13602 1.624 7.00802 0.632004 6.97602V6.01602ZM14.84 6.97602C13.592 6.97602 12.776 7.24802 12.392 7.79202C12.04 8.33602 11.864 9.44002 11.864 11.104V34.912C11.864 36.032 11.944 36.88 12.104 37.456C12.296 38.032 12.616 38.416 13.064 38.608C13.544 38.8 14.248 38.896 15.176 38.896C17.48 38.896 19.16 38.176 20.216 36.736C21.304 35.264 21.848 33.184 21.848 30.496C21.848 28.032 21.224 26.128 19.976 24.784C18.76 23.44 16.728 22.768 13.88 22.768H9.8C9.8 22.768 9.8 22.64 9.8 22.384C9.8 22.096 9.8 21.952 9.8 21.952H13.928C15.432 21.952 16.584 21.6 17.384 20.896C18.184 20.16 18.744 19.2 19.064 18.016C19.384 16.8 19.544 15.504 19.544 14.128C19.544 11.76 19.176 9.98402 18.44 8.80002C17.704 7.58402 16.504 6.97602 14.84 6.97602Z" fill="#06223C"/>
<path d="M44.786 14.512C47.602 14.512 49.81 15.344 51.41 17.008C53.01 18.672 53.81 21.392 53.81 25.168H38.018L37.922 24.256H47.762C47.794 22.688 47.698 21.248 47.474 19.936C47.25 18.592 46.898 17.52 46.418 16.72C45.938 15.92 45.298 15.52 44.498 15.52C43.378 15.52 42.418 16.224 41.618 17.632C40.85 19.04 40.386 21.376 40.226 24.64L40.37 24.928C40.338 25.312 40.306 25.712 40.274 26.128C40.274 26.544 40.274 26.976 40.274 27.424C40.274 29.632 40.578 31.424 41.186 32.8C41.826 34.176 42.626 35.184 43.586 35.824C44.546 36.432 45.522 36.736 46.514 36.736C47.186 36.736 47.874 36.64 48.578 36.448C49.314 36.224 50.05 35.84 50.786 35.296C51.522 34.72 52.21 33.92 52.85 32.896L53.714 33.184C53.33 34.4 52.722 35.584 51.89 36.736C51.058 37.888 50.002 38.832 48.722 39.568C47.442 40.304 45.906 40.672 44.114 40.672C41.938 40.672 40.018 40.208 38.354 39.28C36.69 38.352 35.378 36.944 34.418 35.056C33.49 33.168 33.026 30.768 33.026 27.856C33.026 24.88 33.522 22.4 34.514 20.416C35.538 18.432 36.93 16.96 38.69 16C40.482 15.008 42.514 14.512 44.786 14.512Z" fill="#06223C"/>
<path d="M66.3815 2.41602V35.536C66.3815 36.88 66.6055 37.792 67.0535 38.272C67.5335 38.752 68.3335 38.992 69.4535 38.992V40C68.8455 39.968 67.9335 39.936 66.7175 39.904C65.5015 39.84 64.2695 39.808 63.0215 39.808C61.7735 39.808 60.5095 39.84 59.2295 39.904C57.9815 39.936 57.0375 39.968 56.3975 40V38.992C57.5175 38.992 58.3015 38.752 58.7495 38.272C59.2295 37.792 59.4695 36.88 59.4695 35.536V8.17602C59.4695 6.73602 59.2455 5.68002 58.7975 5.00802C58.3815 4.30402 57.5815 3.95202 56.3975 3.95202V2.94402C57.4215 3.04002 58.4135 3.08802 59.3735 3.08802C60.6855 3.08802 61.9335 3.04002 63.1175 2.94402C64.3015 2.81602 65.3895 2.64002 66.3815 2.41602Z" fill="#06223C"/>
<path d="M81.569 2.41602V35.536C81.569 36.88 81.793 37.792 82.241 38.272C82.721 38.752 83.521 38.992 84.641 38.992V40C84.033 39.968 83.121 39.936 81.905 39.904C80.689 39.84 79.457 39.808 78.209 39.808C76.961 39.808 75.697 39.84 74.417 39.904C73.169 39.936 72.225 39.968 71.585 40V38.992C72.705 38.992 73.489 38.752 73.937 38.272C74.417 37.792 74.657 36.88 74.657 35.536V8.17602C74.657 6.73602 74.433 5.68002 73.985 5.00802C73.569 4.30402 72.769 3.95202 71.585 3.95202V2.94402C72.609 3.04002 73.601 3.08802 74.561 3.08802C75.873 3.08802 77.121 3.04002 78.305 2.94402C79.489 2.81602 80.577 2.64002 81.569 2.41602Z" fill="#06223C"/>
<path d="M93.3073 40.336C91.8672 40.336 90.6673 40.064 89.7073 39.52C88.7473 38.976 88.0433 38.256 87.5953 37.36C87.1473 36.432 86.9233 35.424 86.9233 34.336C86.9233 32.96 87.2272 31.84 87.8353 30.976C88.4753 30.112 89.2913 29.408 90.2833 28.864C91.2753 28.32 92.3153 27.872 93.4033 27.52C94.5233 27.168 95.5793 26.832 96.5713 26.512C97.5953 26.16 98.4113 25.76 99.0193 25.312C99.6593 24.832 99.9793 24.224 99.9793 23.488V19.744C99.9793 18.912 99.8353 18.176 99.5473 17.536C99.2913 16.864 98.8753 16.352 98.2993 16C97.7553 15.648 97.0352 15.472 96.1393 15.472C95.4993 15.472 94.8593 15.568 94.2193 15.76C93.5793 15.92 93.0513 16.208 92.6353 16.624C93.5313 16.944 94.2193 17.44 94.6993 18.112C95.2113 18.752 95.4673 19.488 95.4673 20.32C95.4673 21.408 95.0833 22.272 94.3153 22.912C93.5793 23.552 92.6993 23.872 91.6753 23.872C90.5233 23.872 89.6433 23.52 89.0353 22.816C88.4593 22.08 88.1713 21.2 88.1713 20.176C88.1713 19.248 88.3953 18.48 88.8433 17.872C89.3233 17.264 89.9793 16.688 90.8113 16.144C91.7073 15.632 92.7793 15.232 94.0273 14.944C95.3073 14.656 96.6833 14.512 98.1553 14.512C99.6273 14.512 100.955 14.672 102.139 14.992C103.323 15.28 104.315 15.824 105.115 16.624C105.851 17.36 106.331 18.272 106.555 19.36C106.779 20.416 106.891 21.76 106.891 23.392V36.448C106.891 37.248 106.971 37.808 107.131 38.128C107.291 38.416 107.563 38.56 107.947 38.56C108.235 38.56 108.507 38.48 108.763 38.32C109.051 38.16 109.355 37.968 109.675 37.744L110.155 38.56C109.483 39.136 108.699 39.584 107.803 39.904C106.939 40.192 105.963 40.336 104.875 40.336C103.691 40.336 102.747 40.176 102.043 39.856C101.339 39.504 100.827 39.04 100.507 38.464C100.219 37.888 100.075 37.216 100.075 36.448C99.3073 37.664 98.3792 38.624 97.2913 39.328C96.2033 40 94.8753 40.336 93.3073 40.336ZM96.7153 37.264C97.3553 37.264 97.9313 37.12 98.4433 36.832C98.9873 36.512 99.4993 36 99.9793 35.296V25.456C99.6913 25.936 99.2913 26.368 98.7793 26.752C98.2673 27.136 97.7233 27.536 97.1473 27.952C96.5713 28.336 96.0113 28.768 95.4673 29.248C94.9553 29.728 94.5393 30.32 94.2193 31.024C93.8993 31.728 93.7393 32.576 93.7393 33.568C93.7393 34.816 94.0113 35.744 94.5553 36.352C95.0993 36.96 95.8193 37.264 96.7153 37.264Z" fill="#06223C"/>
<path d="M148.656 6.01602C148.528 7.42402 148.432 8.78402 148.368 10.096C148.336 11.408 148.32 12.416 148.32 13.12C148.32 13.76 148.336 14.368 148.368 14.944C148.4 15.52 148.432 16 148.464 16.384H147.36C147.04 14.048 146.544 12.208 145.872 10.864C145.2 9.48802 144.32 8.52802 143.232 7.98402C142.176 7.40802 140.928 7.12002 139.488 7.12002H137.52C136.592 7.12002 135.888 7.20002 135.408 7.36002C134.928 7.52002 134.608 7.84002 134.448 8.32002C134.288 8.80002 134.208 9.53602 134.208 10.528V35.488C134.208 36.48 134.288 37.216 134.448 37.696C134.608 38.176 134.928 38.496 135.408 38.656C135.888 38.816 136.592 38.896 137.52 38.896H139.872C141.312 38.896 142.576 38.592 143.664 37.984C144.784 37.344 145.728 36.272 146.496 34.768C147.296 33.264 147.904 31.232 148.32 28.672H149.424C149.328 29.696 149.28 31.04 149.28 32.704C149.28 33.44 149.296 34.48 149.328 35.824C149.36 37.168 149.456 38.56 149.616 40C147.984 39.936 146.144 39.904 144.096 39.904C142.048 39.872 140.224 39.856 138.624 39.856C137.824 39.856 136.8 39.856 135.552 39.856C134.304 39.856 132.96 39.872 131.52 39.904C130.08 39.904 128.624 39.92 127.152 39.952C125.68 39.952 124.288 39.968 122.976 40V39.04C124 38.976 124.768 38.848 125.28 38.656C125.792 38.464 126.128 38.08 126.288 37.504C126.48 36.928 126.576 36.064 126.576 34.912V11.104C126.576 9.92002 126.48 9.05602 126.288 8.51202C126.128 7.93602 125.776 7.55202 125.232 7.36002C124.72 7.13602 123.968 7.00802 122.976 6.97602V6.01602C124.288 6.04802 125.68 6.08002 127.152 6.11202C128.624 6.11202 130.08 6.12802 131.52 6.16002C132.96 6.16002 134.304 6.16002 135.552 6.16002C136.8 6.16002 137.824 6.16002 138.624 6.16002C140.096 6.16002 141.76 6.16002 143.616 6.16002C145.504 6.12802 147.184 6.08002 148.656 6.01602ZM141.168 22.432C141.168 22.432 141.168 22.592 141.168 22.912C141.168 23.232 141.168 23.392 141.168 23.392H132.768C132.768 23.392 132.768 23.232 132.768 22.912C132.768 22.592 132.768 22.432 132.768 22.432H141.168ZM142.56 16.096C142.432 17.92 142.368 19.312 142.368 20.272C142.4 21.232 142.416 22.112 142.416 22.912C142.416 23.712 142.432 24.592 142.464 25.552C142.496 26.512 142.576 27.904 142.704 29.728H141.6C141.44 28.608 141.136 27.568 140.688 26.608C140.272 25.648 139.664 24.88 138.864 24.304C138.064 23.696 137.024 23.392 135.744 23.392V22.432C136.704 22.432 137.52 22.24 138.192 21.856C138.864 21.44 139.408 20.912 139.824 20.272C140.272 19.6 140.624 18.896 140.88 18.16C141.136 17.424 141.328 16.736 141.456 16.096H142.56Z" fill="#06223C"/>
<path d="M162.422 14.512C163.766 14.512 164.934 14.688 165.926 15.04C166.95 15.36 167.686 15.68 168.134 16C169.222 16.736 169.894 16.256 170.15 14.56H171.158C171.094 15.456 171.046 16.56 171.014 17.872C170.982 19.152 170.966 20.864 170.966 23.008H169.958C169.798 21.824 169.494 20.656 169.046 19.504C168.598 18.352 167.942 17.408 167.078 16.672C166.246 15.936 165.158 15.568 163.814 15.568C162.886 15.568 162.102 15.84 161.462 16.384C160.822 16.896 160.502 17.648 160.502 18.64C160.502 19.6 160.79 20.448 161.366 21.184C161.942 21.888 162.678 22.576 163.574 23.248C164.502 23.888 165.462 24.576 166.454 25.312C167.51 26.112 168.47 26.912 169.334 27.712C170.198 28.48 170.886 29.328 171.398 30.256C171.91 31.184 172.166 32.288 172.166 33.568C172.166 35.008 171.75 36.272 170.918 37.36C170.086 38.416 168.982 39.232 167.606 39.808C166.262 40.384 164.758 40.672 163.094 40.672C162.134 40.672 161.27 40.576 160.502 40.384C159.766 40.192 159.126 39.952 158.582 39.664C158.166 39.472 157.766 39.296 157.382 39.136C157.03 38.944 156.694 38.784 156.374 38.656C156.054 38.56 155.766 38.672 155.51 38.992C155.286 39.312 155.11 39.76 154.982 40.336H153.974C154.038 39.312 154.086 38.064 154.118 36.592C154.15 35.12 154.166 33.168 154.166 30.736H155.174C155.366 32.464 155.718 34 156.23 35.344C156.742 36.656 157.43 37.696 158.294 38.464C159.19 39.2 160.31 39.568 161.654 39.568C162.198 39.568 162.726 39.456 163.238 39.232C163.75 39.008 164.166 38.64 164.486 38.128C164.838 37.616 165.014 36.96 165.014 36.16C165.014 34.752 164.55 33.584 163.622 32.656C162.726 31.728 161.574 30.72 160.166 29.632C159.142 28.8 158.166 27.984 157.238 27.184C156.342 26.352 155.606 25.456 155.03 24.496C154.454 23.504 154.166 22.384 154.166 21.136C154.166 19.696 154.55 18.48 155.318 17.488C156.086 16.496 157.094 15.76 158.342 15.28C159.622 14.768 160.982 14.512 162.422 14.512Z" fill="#06223C"/>
<path d="M184.882 14.656V43.936C184.882 45.44 185.266 46.432 186.034 46.912C186.802 47.424 187.858 47.68 189.202 47.68V48.688C188.37 48.656 187.217 48.608 185.745 48.544C184.305 48.512 182.77 48.496 181.137 48.496C179.953 48.496 178.785 48.512 177.633 48.544C176.514 48.608 175.666 48.656 175.09 48.688V47.68C176.146 47.68 176.882 47.456 177.298 47.008C177.745 46.56 177.969 45.696 177.969 44.416V20.416C177.969 18.976 177.745 17.92 177.298 17.248C176.85 16.544 176.049 16.192 174.898 16.192V15.184C175.922 15.28 176.913 15.328 177.874 15.328C179.186 15.328 180.434 15.28 181.618 15.184C182.802 15.056 183.889 14.88 184.882 14.656ZM192.322 14.512C193.954 14.512 195.41 14.96 196.689 15.856C197.969 16.72 198.993 18.048 199.762 19.84C200.53 21.6 200.913 23.808 200.913 26.464C200.913 28.8 200.642 30.848 200.098 32.608C199.586 34.368 198.834 35.856 197.842 37.072C196.882 38.256 195.714 39.152 194.338 39.76C192.994 40.368 191.474 40.672 189.778 40.672C188.53 40.672 187.394 40.448 186.37 40C185.346 39.584 184.562 38.976 184.018 38.176L184.497 37.552C184.817 38.128 185.266 38.576 185.842 38.896C186.45 39.216 187.137 39.376 187.906 39.376C189.346 39.376 190.482 38.896 191.314 37.936C192.146 36.944 192.738 35.568 193.09 33.808C193.474 32.016 193.665 29.888 193.665 27.424C193.665 24.672 193.49 22.512 193.137 20.944C192.785 19.376 192.306 18.256 191.698 17.584C191.09 16.912 190.354 16.576 189.49 16.576C188.338 16.576 187.282 17.024 186.322 17.92C185.394 18.816 184.866 20.096 184.738 21.76L184.497 20.08C185.074 18.256 186.049 16.88 187.426 15.952C188.834 14.992 190.465 14.512 192.322 14.512Z" fill="#06223C"/>
<path d="M216.255 14.512C218.591 14.512 220.639 14.944 222.399 15.808C224.159 16.672 225.535 18.064 226.527 19.984C227.519 21.904 228.015 24.448 228.015 27.616C228.015 30.784 227.519 33.328 226.527 35.248C225.535 37.136 224.159 38.512 222.399 39.376C220.639 40.24 218.591 40.672 216.255 40.672C213.983 40.672 211.951 40.24 210.159 39.376C208.399 38.512 207.007 37.136 205.983 35.248C204.991 33.328 204.495 30.784 204.495 27.616C204.495 24.448 204.991 21.904 205.983 19.984C207.007 18.064 208.399 16.672 210.159 15.808C211.951 14.944 213.983 14.512 216.255 14.512ZM216.255 15.472C214.975 15.472 213.903 16.432 213.039 18.352C212.175 20.24 211.743 23.328 211.743 27.616C211.743 31.904 212.175 34.992 213.039 36.88C213.903 38.768 214.975 39.712 216.255 39.712C217.567 39.712 218.639 38.768 219.471 36.88C220.335 34.992 220.767 31.904 220.767 27.616C220.767 23.328 220.335 20.24 219.471 18.352C218.639 16.432 217.567 15.472 216.255 15.472ZM221.583 0.784018C222.127 1.20002 222.415 1.77602 222.447 2.51202C222.479 3.24802 222.239 3.93602 221.727 4.57602C221.215 5.21602 220.591 5.79202 219.855 6.30402C219.119 6.81602 218.239 7.44002 217.215 8.17602C216.223 8.91202 215.023 9.93602 213.615 11.248L213.087 10.816C214.047 9.08802 214.751 7.64802 215.199 6.49602C215.647 5.31202 216.031 4.30402 216.351 3.47202C216.671 2.64002 217.103 1.92002 217.647 1.31202C218.127 0.672017 218.751 0.304017 219.519 0.208017C220.319 0.0800165 221.007 0.272017 221.583 0.784018Z" fill="#06223C"/>
<path d="M240.515 14.512C241.859 14.512 243.027 14.688 244.019 15.04C245.043 15.36 245.779 15.68 246.227 16C247.315 16.736 247.987 16.256 248.243 14.56H249.251C249.187 15.456 249.139 16.56 249.107 17.872C249.075 19.152 249.059 20.864 249.059 23.008H248.051C247.891 21.824 247.587 20.656 247.139 19.504C246.691 18.352 246.035 17.408 245.171 16.672C244.339 15.936 243.251 15.568 241.907 15.568C240.979 15.568 240.195 15.84 239.555 16.384C238.915 16.896 238.595 17.648 238.595 18.64C238.595 19.6 238.883 20.448 239.459 21.184C240.035 21.888 240.771 22.576 241.667 23.248C242.595 23.888 243.555 24.576 244.547 25.312C245.603 26.112 246.563 26.912 247.427 27.712C248.291 28.48 248.979 29.328 249.491 30.256C250.003 31.184 250.259 32.288 250.259 33.568C250.259 35.008 249.843 36.272 249.011 37.36C248.179 38.416 247.075 39.232 245.699 39.808C244.355 40.384 242.851 40.672 241.187 40.672C240.227 40.672 239.363 40.576 238.595 40.384C237.859 40.192 237.219 39.952 236.675 39.664C236.259 39.472 235.859 39.296 235.475 39.136C235.123 38.944 234.787 38.784 234.467 38.656C234.147 38.56 233.859 38.672 233.603 38.992C233.379 39.312 233.203 39.76 233.075 40.336H232.067C232.131 39.312 232.179 38.064 232.211 36.592C232.243 35.12 232.259 33.168 232.259 30.736H233.267C233.459 32.464 233.811 34 234.323 35.344C234.835 36.656 235.523 37.696 236.387 38.464C237.283 39.2 238.403 39.568 239.747 39.568C240.291 39.568 240.819 39.456 241.331 39.232C241.843 39.008 242.259 38.64 242.579 38.128C242.931 37.616 243.107 36.96 243.107 36.16C243.107 34.752 242.643 33.584 241.715 32.656C240.819 31.728 239.667 30.72 238.259 29.632C237.235 28.8 236.259 27.984 235.331 27.184C234.435 26.352 233.699 25.456 233.123 24.496C232.547 23.504 232.259 22.384 232.259 21.136C232.259 19.696 232.643 18.48 233.411 17.488C234.179 16.496 235.187 15.76 236.435 15.28C237.715 14.768 239.075 14.512 240.515 14.512Z" fill="#06223C"/>
<path d="M259.423 2.80002C260.767 2.80002 261.823 3.13602 262.591 3.80802C263.391 4.44802 263.791 5.34402 263.791 6.49602C263.791 7.64802 263.391 8.56002 262.591 9.23202C261.823 9.87202 260.767 10.192 259.423 10.192C258.079 10.192 257.007 9.87202 256.207 9.23202C255.439 8.56002 255.055 7.64802 255.055 6.49602C255.055 5.34402 255.439 4.44802 256.207 3.80802C257.007 3.13602 258.079 2.80002 259.423 2.80002ZM263.167 14.656V35.536C263.167 36.88 263.391 37.792 263.839 38.272C264.319 38.752 265.119 38.992 266.239 38.992V40C265.663 39.968 264.767 39.936 263.551 39.904C262.335 39.84 261.103 39.808 259.855 39.808C258.607 39.808 257.343 39.84 256.063 39.904C254.783 39.936 253.823 39.968 253.183 40V38.992C254.303 38.992 255.087 38.752 255.535 38.272C256.015 37.792 256.255 36.88 256.255 35.536V20.416C256.255 18.976 256.031 17.92 255.583 17.248C255.167 16.544 254.367 16.192 253.183 16.192V15.184C254.207 15.28 255.199 15.328 256.159 15.328C257.503 15.328 258.751 15.28 259.903 15.184C261.087 15.056 262.175 14.88 263.167 14.656Z" fill="#06223C"/>
<path d="M278.068 7.31202V15.184H283.732V16.144H278.068V35.536C278.068 36.496 278.244 37.184 278.596 37.6C278.948 37.984 279.476 38.176 280.18 38.176C280.756 38.176 281.332 37.968 281.908 37.552C282.484 37.104 282.996 36.352 283.444 35.296L284.26 35.728C283.748 37.168 282.964 38.352 281.908 39.28C280.884 40.208 279.476 40.672 277.684 40.672C276.628 40.672 275.7 40.528 274.9 40.24C274.1 39.984 273.428 39.584 272.884 39.04C272.18 38.336 271.716 37.472 271.492 36.448C271.268 35.392 271.156 34.032 271.156 32.368V16.144H267.124V15.184H271.156V8.84802C272.5 8.84802 273.732 8.73602 274.852 8.51202C276.004 8.25602 277.076 7.85602 278.068 7.31202Z" fill="#06223C"/>
<path d="M297.395 14.512C299.731 14.512 301.779 14.944 303.539 15.808C305.299 16.672 306.675 18.064 307.667 19.984C308.659 21.904 309.155 24.448 309.155 27.616C309.155 30.784 308.659 33.328 307.667 35.248C306.675 37.136 305.299 38.512 303.539 39.376C301.779 40.24 299.731 40.672 297.395 40.672C295.123 40.672 293.091 40.24 291.299 39.376C289.539 38.512 288.147 37.136 287.123 35.248C286.131 33.328 285.635 30.784 285.635 27.616C285.635 24.448 286.131 21.904 287.123 19.984C288.147 18.064 289.539 16.672 291.299 15.808C293.091 14.944 295.123 14.512 297.395 14.512ZM297.395 15.472C296.115 15.472 295.043 16.432 294.179 18.352C293.315 20.24 292.883 23.328 292.883 27.616C292.883 31.904 293.315 34.992 294.179 36.88C295.043 38.768 296.115 39.712 297.395 39.712C298.707 39.712 299.779 38.768 300.611 36.88C301.475 34.992 301.907 31.904 301.907 27.616C301.907 23.328 301.475 20.24 300.611 18.352C299.779 16.432 298.707 15.472 297.395 15.472Z" fill="#06223C"/>
</svg>
